<?xml version="1.0" encoding="utf-8"?>
<!-- Generator: Adobe Illustrator 16.0.0, SVG Export Plug-In . SVG Version: 6.00 Build 0)  -->
<!DOCTYPE svg PUBLIC "-//W3C//DTD SVG 1.1//EN" "http://www.w3.org/Graphics/SVG/1.1/DTD/svg11.dtd">
<svg version="1.1" id="圖層_1" xmlns="http://www.w3.org/2000/svg" xmlns:xlink="http://www.w3.org/1999/xlink" x="0px" y="0px"
	 width="126.853px" height="53.857px" viewBox="-44.647 0 126.853 53.857" enable-background="new -44.647 0 126.853 53.857"
	 xml:space="preserve">
<path fill="#FFFFFF" d="M63.015,10.874c-0.066-0.06-1.668-1.462-1.701-3.295c-0.02-0.979,0.402-1.877,1.254-2.669
	c0.539-0.503,0.807-1.04,0.791-1.598c-0.027-1.098-1.1-2.011-1.145-2.049l0.637-0.758C63,0.63,64.31,1.774,64.349,3.287
	c0.021,0.852-0.351,1.641-1.106,2.346c-0.636,0.593-0.951,1.242-0.938,1.927c0.025,1.396,1.346,2.553,1.36,2.565L63.015,10.874z"/>
<path fill="#FFFFFF" d="M65.884,10.874c-0.066-0.06-1.667-1.462-1.701-3.295c-0.02-0.979,0.402-1.877,1.254-2.669
	c0.541-0.503,0.807-1.04,0.791-1.598c-0.027-1.098-1.1-2.011-1.145-2.049l0.637-0.758c0.15,0.125,1.459,1.269,1.497,2.782
	c0.023,0.852-0.35,1.641-1.104,2.346c-0.637,0.593-0.952,1.242-0.939,1.927c0.025,1.396,1.346,2.554,1.36,2.565L65.884,10.874z"/>
<path fill="#FFFFFF" d="M69.009,10.874c-0.066-0.06-1.668-1.462-1.701-3.295c-0.019-0.979,0.402-1.878,1.254-2.67
	c0.541-0.503,0.808-1.041,0.791-1.6c-0.027-1.1-1.099-2.009-1.144-2.047l0.636-0.759c0.148,0.125,1.459,1.264,1.497,2.78
	c0.024,0.853-0.349,1.643-1.106,2.349c-0.635,0.592-0.949,1.238-0.938,1.923c0.021,1.388,1.348,2.559,1.36,2.569L69.009,10.874z"/>
<path fill="#FFFFFF" d="M70.718,24.723c-2.117,0-5.031-0.03-5.266-0.032c-0.232,0.002-3.148,0.032-5.268,0.032
	c-1.65,0-2.08-0.019-2.271-0.032l-0.318-0.024l-0.269-0.158c-4.157-2.454-4.132-11.139-4.117-12.121l0.021-1.153h24.446l0.019,1.153
	c0.018,0.981,0.041,9.667-4.115,12.121l-0.268,0.158l-0.318,0.024C72.801,24.704,72.37,24.723,70.718,24.723z"/>
<path fill="#FFFFFF" d="M65.26,30.6l-5.104,0.006c-6.229-0.001-8.529-2.926-8.875-4.474l-0.248-1.101h28.471l-0.247,1.101
	c-0.346,1.548-2.647,4.474-8.875,4.474L65.26,30.6z"/>
<path fill="#FFFFFF" d="M74.843,23.703c-0.059,0-0.117,0-0.176-0.001l0.044-1.98c1.362,0.027,2.513-0.337,3.325-1.043
	c0.863-0.752,1.32-1.868,1.32-3.226c0-2.521-2.672-3.286-2.698-3.293l0.659-1.892c1.477,0.407,4.269,2.014,4.269,5.185
	c0,1.901-0.688,3.507-1.989,4.641C78.384,23.147,76.744,23.703,74.843,23.703z"/>
<g>
	<path fill="#FFFFFF" d="M15.443,8.48c1.066,0.03,2.03,0.046,2.889,0.046c0.766,0,1.666-0.016,2.702-0.046l0.07,0.591l-1.59,0.453
		c-0.178,0.055-0.271,0.183-0.278,0.384c-0.016,0.51-0.022,1.152-0.022,1.926v9.246c0,0.913,0.007,1.683,0.022,2.309
		c0.007,0.178,0.112,0.298,0.313,0.359l1.508,0.43l0.047,0.58c-1.106-0.023-2.332-0.035-3.679-0.035c-1.306,0-2.4,0.011-3.282,0.035
		l-0.059-0.58l1.334-0.406c0.187-0.054,0.283-0.192,0.29-0.418c0.024-0.604,0.035-1.36,0.035-2.273v-7.426
		c0-0.401,0.012-1.171,0.035-2.309c-0.264,0.666-0.541,1.354-0.836,2.065l-4.617,11.312l-1.044,0.093L4.874,13.828
		c-0.264-0.626-0.534-1.326-0.813-2.101c0.017,1.1,0.023,1.822,0.023,2.169v7.182c0,0.913,0.008,1.671,0.022,2.273
		c0.009,0.226,0.109,0.364,0.303,0.418l1.275,0.406l0.036,0.58c-0.913-0.023-1.706-0.035-2.379-0.035
		c-0.666,0-1.536,0.011-2.61,0.035l-0.058-0.58l1.555-0.43c0.2-0.063,0.305-0.182,0.313-0.359c0.016-0.626,0.023-1.396,0.023-2.309
		v-9.246c0-0.773-0.008-1.416-0.023-1.926c-0.007-0.2-0.1-0.328-0.278-0.383L0.708,9.071L0.674,8.48
		C1.958,8.51,2.92,8.526,3.563,8.526c0.882,0,1.782-0.016,2.702-0.046l4.049,10.222c0.179,0.44,0.337,0.857,0.477,1.253
		c0.154-0.396,0.316-0.813,0.486-1.253L15.443,8.48z"/>
	<path fill="#FFFFFF" d="M22.658,14.49c1.902-0.286,3.574-0.584,5.013-0.895l0.128,0.093c-0.048,1.067-0.07,2.205-0.07,3.412v4.374
		c0,0.92,0.008,1.563,0.022,1.925c0.017,0.209,0.113,0.342,0.29,0.396l1.45,0.406l0.036,0.557c-1.146-0.023-2.282-0.035-3.411-0.035
		c-1.152,0-2.29,0.011-3.411,0.035L22.646,24.2l1.474-0.406c0.179-0.047,0.275-0.163,0.29-0.349c0.016-0.302,0.024-0.808,0.024-1.52
		V18.19c0-1.013-0.017-1.944-0.048-2.796l-1.658-0.429L22.658,14.49z M27.763,9.756c0,0.534-0.172,0.967-0.516,1.299
		c-0.346,0.333-0.795,0.499-1.353,0.499c-0.511,0-0.93-0.157-1.258-0.47c-0.329-0.313-0.493-0.722-0.493-1.225
		c0-0.549,0.174-0.981,0.521-1.299c0.349-0.316,0.801-0.476,1.357-0.476c0.51,0,0.928,0.145,1.253,0.435
		C27.6,8.81,27.763,9.222,27.763,9.756z"/>
	<path fill="#FFFFFF" d="M37.578,14.954c-0.488-0.117-1.013-0.174-1.578-0.174c-0.703,0-1.278,0.123-1.723,0.37
		c-0.445,0.247-0.667,0.6-0.667,1.056c0,0.348,0.097,0.617,0.29,0.807c0.193,0.19,0.526,0.365,0.998,0.528l1.856,0.649
		c1.106,0.379,1.914,0.837,2.424,1.375c0.512,0.538,0.767,1.166,0.767,1.886c0,1.136-0.478,2.021-1.434,2.649
		c-0.955,0.63-2.21,0.946-3.764,0.946c-1.3,0-2.576-0.268-3.829-0.801c0.264-1.036,0.479-2.042,0.65-3.018l0.591-0.093l0.836,2.529
		c0.472,0.163,1.063,0.244,1.774,0.244c0.674,0,1.218-0.127,1.636-0.384c0.418-0.255,0.626-0.61,0.626-1.066
		c0-0.378-0.125-0.697-0.377-0.957c-0.251-0.259-0.752-0.517-1.501-0.771l-1.416-0.486c-0.904-0.317-1.586-0.729-2.042-1.235
		s-0.685-1.127-0.685-1.862c0-1.129,0.444-1.995,1.334-2.599c0.89-0.604,2.115-0.905,3.679-0.905c1.283,0,2.443,0.189,3.48,0.568
		c-0.232,1.013-0.43,1.972-0.593,2.877l-0.638,0.093L37.578,14.954z"/>
	<path fill="#FFFFFF" d="M46.093,15.325c-0.046,2.412-0.07,4.459-0.07,6.137c0,0.781,0.121,1.321,0.36,1.618
		c0.239,0.298,0.7,0.446,1.38,0.446c0.526,0,1.1-0.03,1.719-0.093l0.093,0.696c-1.229,0.604-2.378,0.905-3.445,0.905
		c-1.083,0-1.921-0.227-2.513-0.68s-0.887-1.135-0.887-2.048c0-1.607,0.022-3.956,0.068-7.042l-1.566-0.406l-0.104-0.627
		l1.938-0.174l1.103-2.727c0.657-0.116,1.257-0.229,1.798-0.336l0.163,0.081c-0.022,0.937-0.035,1.931-0.035,2.981h3.248v1.266
		L46.093,15.325L46.093,15.325z"/>
</g>
<g>
	<path fill="#FFFFFF" d="M13.979,35.533l-0.649,0.104l-0.372-3.329c-0.525-0.187-1.148-0.279-1.866-0.279
		c-1.995,0-3.657,0.841-4.982,2.519c-1.328,1.678-1.991,3.697-1.991,6.057c0,1.755,0.488,3.134,1.463,4.136
		c0.974,1.002,2.304,1.503,3.99,1.503c1.066,0,2.169-0.231,3.307-0.696l0.244,0.686c-1.663,1.005-3.477,1.509-5.441,1.509
		c-2.204,0-3.966-0.625-5.284-1.874c-1.319-1.249-1.979-2.914-1.979-4.995c0-2.923,1.031-5.318,3.092-7.188
		c2.062-1.868,4.646-2.802,7.756-2.802c1.345,0,2.707,0.158,4.083,0.476l0.046,0.116L13.979,35.533z"/>
	<path fill="#FFFFFF" d="M21.741,36.437c1.67,0,3.005,0.437,4.003,1.307c0.997,0.869,1.496,2.04,1.496,3.509
		c0,1.856-0.604,3.396-1.815,4.618c-1.211,1.222-2.774,1.833-4.693,1.833c-1.693,0-3.033-0.437-4.02-1.306
		c-0.986-0.871-1.479-2.021-1.479-3.45c0-1.881,0.597-3.437,1.786-4.664C18.209,37.052,19.784,36.437,21.741,36.437z M21.601,37.632
		c-0.858,0-1.569,0.528-2.135,1.584c-0.563,1.056-0.843,2.318-0.834,3.787c0.007,1.1,0.204,1.957,0.591,2.576
		c0.387,0.619,0.937,0.928,1.647,0.928c0.882,0,1.593-0.543,2.135-1.63c0.541-1.087,0.812-2.337,0.812-3.753
		c0-1.099-0.196-1.955-0.592-2.57C22.831,37.94,22.29,37.632,21.601,37.632z"/>
	<path fill="#FFFFFF" d="M46.208,29.906c0.789,0,1.559,0.111,2.309,0.336c-0.316,1.061-0.596,2.17-0.834,3.33l-0.65,0.104
		l-0.614-2.61c-0.153-0.039-0.356-0.059-0.604-0.059c-0.703,0-1.313,0.332-1.832,0.992c-0.52,0.662-0.967,1.967-1.347,3.916
		l-0.186,0.963h3.04l-0.232,1.195h-3.027l-1.741,8.329c-0.479,2.267-1.164,3.917-2.054,4.953c-0.89,1.037-2.115,1.556-3.677,1.556
		c-0.604,0-1.305-0.081-2.101-0.243c0.178-0.852,0.371-1.663,0.58-2.438l0.162-0.047c0.882,1.015,1.535,1.521,1.961,1.521
		c0.433,0,0.797-0.31,1.09-0.929c0.147-0.309,0.289-0.733,0.425-1.274c0.135-0.542,0.276-1.224,0.423-2.043l1.671-9.385h-4.513
		l-1.787,8.563c-0.479,2.266-1.164,3.916-2.054,4.953c-0.89,1.036-2.115,1.555-3.678,1.555c-0.603,0-1.304-0.082-2.1-0.244
		c0.179-0.85,0.371-1.662,0.58-2.436l0.162-0.047c0.883,1.014,1.536,1.52,1.961,1.52c0.434,0,0.797-0.309,1.09-0.928
		c0.147-0.31,0.288-0.734,0.424-1.276c0.135-0.542,0.277-1.222,0.424-2.042l1.729-9.698L29.49,37.54l0.036-0.499l1.879-0.174
		c0.448-2.089,1.302-3.732,2.559-4.932c1.257-1.199,2.731-1.798,4.426-1.798c0.75,0,1.493,0.111,2.228,0.336
		c-0.302,0.982-0.58,2.092-0.836,3.33l-0.626,0.104l-0.615-2.609c-0.155-0.039-0.337-0.059-0.545-0.059
		c-0.703,0-1.314,0.33-1.834,0.991c-0.518,0.661-0.967,1.968-1.345,3.916l-0.14,0.73h4.501c0.48-2.25,1.349-3.977,2.605-5.174
		C43.04,30.505,44.515,29.906,46.208,29.906z"/>
	<path fill="#FFFFFF" d="M54.433,45.162l0.396,0.58c-1.479,1.292-3.117,1.938-4.92,1.938c-1.407,0-2.544-0.383-3.41-1.147
		c-0.866-0.766-1.299-1.816-1.299-3.146c0-1.972,0.703-3.624,2.109-4.954c1.408-1.33,3.113-1.996,5.117-1.996
		c1.113,0,1.973,0.203,2.575,0.609s0.905,0.996,0.905,1.77c0,0.968-0.619,1.773-1.856,2.419c-1.237,0.646-3.063,1.026-5.477,1.144
		c-0.015,0.186-0.022,0.36-0.022,0.521c0,1.043,0.213,1.839,0.639,2.385c0.426,0.545,1.063,0.816,1.914,0.816
		C52.203,46.101,53.312,45.789,54.433,45.162z M48.668,41.449c2.677-0.246,4.015-1.109,4.015-2.587c0-0.409-0.097-0.718-0.285-0.923
		s-0.431-0.308-0.726-0.308c-0.634,0-1.237,0.354-1.81,1.062C49.289,39.402,48.894,40.32,48.668,41.449z"/>
	<path fill="#FFFFFF" d="M66.651,45.162l0.394,0.58c-1.478,1.292-3.116,1.938-4.919,1.938c-1.408,0-2.544-0.383-3.41-1.147
		c-0.867-0.767-1.3-1.814-1.3-3.145c0-1.972,0.703-3.624,2.112-4.954c1.406-1.33,3.111-1.996,5.115-1.996
		c1.112,0,1.972,0.203,2.575,0.609c0.604,0.406,0.904,0.996,0.904,1.77c0,0.968-0.619,1.773-1.856,2.419
		c-1.236,0.646-3.063,1.026-5.476,1.144c-0.017,0.186-0.022,0.36-0.022,0.521c0,1.043,0.213,1.839,0.637,2.385
		c0.427,0.545,1.063,0.816,1.916,0.816C64.419,46.101,65.528,45.789,66.651,45.162z M60.884,41.449
		c2.676-0.246,4.016-1.109,4.016-2.587c0-0.409-0.096-0.718-0.285-0.923s-0.432-0.308-0.725-0.308c-0.635,0-1.238,0.354-1.811,1.062
		S61.108,40.32,60.884,41.449z"/>
</g>
<g>
	<path fill="#FFFFFF" d="M-43.766,12.293h5.188v1.374c-0.588,1.148-1.347,2.352-2.276,3.609h2.194v1.169
		c-0.314,1.422-0.636,2.536-0.964,3.343c0.807,0.902,1.47,1.47,1.989,1.702c0.465,0.26,1.142,0.451,2.03,0.574
		c1.025,0.15,3.063,0.246,6.111,0.287c2.201,0,3.849-0.062,4.942-0.185l-0.246,1.887c-5.838,0-9.406-0.075-10.705-0.226
		c-1.162-0.15-2.085-0.403-2.769-0.759c-0.629-0.26-1.319-0.854-2.071-1.784c-0.547,1.012-1.278,2.078-2.194,3.199l-1.374-1.497
		c1.025-1.107,1.75-2.071,2.174-2.892c0.328-0.52,0.731-1.579,1.21-3.179h-2.481v-1.538c0.752-0.875,1.531-2.023,2.338-3.445h-3.097
		V12.293z M-41.284,7.433c0.957,0.916,1.777,1.818,2.461,2.707l-1.415,1.415c-0.547-0.902-1.34-1.859-2.379-2.871L-41.284,7.433z
		 M-37.449,13.667h5.25v-6.46h1.887v6.46h4.86v1.723h-4.86v8.039h-1.887v-5.988c-1.176,2.105-2.57,3.862-4.184,5.271l-1.23-1.805
		c2.037-1.545,3.616-3.384,4.737-5.517h-4.573V13.667z M-35.378,8.253c0.779,1.148,1.463,2.379,2.051,3.691l-1.887,0.82
		c-0.615-1.463-1.306-2.769-2.071-3.917L-35.378,8.253z M-28.59,16.292c1.531,1.6,2.823,3.192,3.876,4.778l-1.497,1.456
		c-0.861-1.504-2.112-3.138-3.753-4.901L-28.59,16.292z M-27.113,8.11l1.661,0.738c-0.588,1.654-1.271,3.076-2.051,4.266
		l-1.805-1.333C-28.501,10.728-27.77,9.504-27.113,8.11z"/>
	<path fill="#FFFFFF" d="M-21.617,15.554h7.485v1.333c-0.752,0.82-1.606,1.559-2.563,2.215h2.953v0.779
		c1.559-0.232,2.803-0.485,3.732-0.759c-0.656-0.383-1.217-0.807-1.682-1.271c-0.451,0.369-0.889,0.67-1.313,0.902l-1.046-1.21
		c1.463-0.779,2.584-1.627,3.363-2.543l1.456,0.308c-0.137,0.191-0.273,0.362-0.41,0.513h5.763v1.21h-1.066
		c-0.533,0.807-1.169,1.477-1.907,2.01c0.957,0.301,2.105,0.561,3.445,0.779l-0.902,1.333c-1.75-0.383-3.138-0.793-4.163-1.23
		c-1.217,0.492-2.885,0.93-5.004,1.313l-0.267-0.82c-0.506,1.148-1.08,2.153-1.723,3.015l-1.148-1.066
		c0.355-0.383,0.745-0.984,1.169-1.805h-1.395v4.04c0,0.602-0.144,1.012-0.431,1.23c-0.246,0.273-0.704,0.41-1.374,0.41h-1.497
		l-0.308-1.641c0.533,0.109,0.964,0.164,1.292,0.164c0.451,0,0.677-0.137,0.677-0.41v-3.794h-0.103
		c-0.287,0.779-0.602,1.422-0.943,1.928c-0.547,0.807-1.347,1.613-2.399,2.42l-0.841-1.374c0.971-0.711,1.654-1.354,2.051-1.928
		c0.232-0.287,0.438-0.636,0.615-1.046h-2.502v-1.456h2.953c-0.424-0.369-0.937-0.759-1.538-1.169l1.641-0.554
		c0.465,0.355,0.916,0.759,1.354,1.21c0.629-0.41,1.319-0.93,2.071-1.559h-5.496V15.554z M-21.269,7.781h16.222v1.374h-7.219v0.677
		h8.388v4.184h-1.805v-2.789h-6.583V15h-1.948v-3.773h-6.501v2.789h-1.805V9.832h8.306V9.156h-7.055V7.781z M-19.895,11.945h4.942
		v1.087h-4.942V11.945z M-19.895,13.667h4.942v1.087h-4.942V13.667z M-13.558,21.727h3.548c0.096-0.355,0.171-0.745,0.226-1.169
		l1.641,0.164c-0.041,0.355-0.109,0.69-0.205,1.005h3.896c-0.123,2.242-0.273,3.459-0.451,3.65
		c-0.123,0.273-0.321,0.472-0.595,0.595c-0.232,0.15-0.656,0.239-1.271,0.267h-1.538l-0.267-1.415
		c0.943,0.109,1.49,0.164,1.641,0.164c0.205,0,0.342-0.048,0.41-0.144c0.109-0.068,0.198-0.649,0.267-1.743H-8.8
		c-0.26,0.547-0.581,1.025-0.964,1.436c-0.807,0.861-2.215,1.531-4.225,2.01l-0.656-1.559c1.723-0.355,2.933-0.861,3.63-1.518
		c0.137-0.109,0.253-0.232,0.349-0.369h-2.892V21.727z M-11.507,11.945h5.086v1.087h-5.086V11.945z M-11.507,13.667h5.086v1.087
		h-5.086V13.667z M-10.625,17.031c0.629,0.561,1.36,1.032,2.194,1.415c0.574-0.355,1.107-0.827,1.6-1.415H-10.625z"/>
</g>
<g>
	<path fill="#FFFFFF" d="M-38.188,31.883v14.499h-3.179v1.887h-1.641V31.883H-38.188z M-41.366,44.844h1.559V33.421h-1.559V44.844z
		 M-37.613,34.159h1.518c0.027-1.121,0.048-2.324,0.062-3.609h1.805c-0.014,1.285-0.034,2.488-0.062,3.609h2.994
		c0,6.877-0.062,10.951-0.185,12.223c-0.082,0.998-0.26,1.654-0.533,1.969c-0.287,0.383-0.834,0.574-1.641,0.574
		c-0.451,0-0.971-0.027-1.559-0.082l-0.349-2.03c0.615,0.109,1.251,0.164,1.907,0.164c0.314,0,0.492-0.41,0.533-1.23
		c0.055-1.012,0.089-4.327,0.103-9.946h-1.313c-0.109,2.639-0.301,4.826-0.574,6.563c-0.342,2.502-1.135,4.86-2.379,7.075
		l-1.23-1.559c0.902-1.723,1.511-3.555,1.825-5.496c0.26-1.572,0.444-3.767,0.554-6.583h-1.477V34.159z M-25.227,31.616v17.309
		h-1.805v-1.374h-1.477v1.538h-1.805V31.616H-25.227z M-28.508,45.992h1.477V33.257h-1.477V45.992z"/>
	<path fill="#FFFFFF" d="M-16.675,31.719V42.67c1.285-0.26,2.618-0.643,3.999-1.148c0.014-0.328,0.021-0.663,0.021-1.005v-1.005
		h-3.117v-1.825h3.117v-2.522h-3.199v-1.825h3.199v-3.015h1.887v10.172c0,2.01-0.314,3.671-0.943,4.983
		c-0.602,1.326-1.764,2.673-3.486,4.04l-1.559-1.415c1.545-1.012,2.632-2.099,3.261-3.261c0.232-0.396,0.41-0.861,0.533-1.395
		c-0.916,0.369-1.962,0.69-3.138,0.964l-0.574-1.313v2.974h-3.691v1.866h-1.805V31.719H-16.675z M-20.366,44.352h1.887V33.421
		h-1.887V44.352z M-9.128,30.324h1.887v3.015h3.445v1.825h-3.445v2.871h3.097v1.825h-3.097v3.261h3.691v1.723h-3.691v4.758h-1.887
		V30.324z"/>
</g>
</svg>
